<?xml version="1.0" encoding="utf-8"?>
<!-- Generator: Adobe Illustrator 27.3.1, SVG Export Plug-In . SVG Version: 6.00 Build 0)  -->
<svg version="1.1" id="Layer_1" xmlns="http://www.w3.org/2000/svg" xmlns:xlink="http://www.w3.org/1999/xlink" x="0px" y="0px"
	 viewBox="0 0 101 111" style="enable-background:new 0 0 101 111;" xml:space="preserve">
<style type="text/css">
	.st0{fill:none;stroke:#FFFFFF;stroke-width:4;stroke-miterlimit:10;}
</style>
<path class="st0" d="M50.6,95.5c0,0,31-22.6,39.4-38.9l1.8-3.6c1.4-3.3,2.2-7,2.2-11c0-14.4-10.6-26-23.7-26
	c-8.3,0-15.6,4.8-19.8,11.9C46.3,20.7,39,16,30.7,16C17.6,16,7,27.7,7,42.1c0,3.9,0.8,7.7,2.2,11l1.9,3.6
	C19.5,72.9,50.5,95.5,50.6,95.5C50.5,95.5,50.6,95.5,50.6,95.5z"/>
</svg>
