<?xml version="1.0" encoding="UTF-8"?><svg id="Layer_1" xmlns="http://www.w3.org/2000/svg" width="89" height="79" viewBox="0 0 89 79"><defs><style>.cls-1{fill:#fffdfd;}.cls-2{fill:#d3726b;}.cls-3{stroke:#172026;stroke-linecap:round;stroke-linejoin:round;stroke-width:2px;}.cls-3,.cls-4{fill:none;}.cls-4{stroke:#000;}</style></defs><g id="Group_172827"><rect id="Rectangle_1587" class="cls-3" x="10" y="9" width="70" height="63" rx="18" ry="18"/><path id="Path_38012" class="cls-3" d="m32.33,41.41c-.84,5.59,1.95,11.09,6.95,13.72,4.96,2.56,11.02,1.56,14.9-2.45,3.94-4.07,4.9-10.17,2.4-15.26-2.43-5.05-7.86-7.93-13.4-7.12-5.67.91-10.08,5.42-10.85,11.11Z"/><g id="Ellipse_154"><circle class="cls-1" cx="65" cy="23" r="7"/><circle class="cls-4" cx="65" cy="23" r="6.5"/></g><rect id="Rectangle_161020" class="cls-3" x="10" y="9" width="70" height="63" rx="18" ry="18"/><path id="Path_38141" class="cls-3" d="m32.33,41.41c-.84,5.59,1.95,11.09,6.95,13.72,4.96,2.56,11.02,1.56,14.9-2.45,3.94-4.07,4.9-10.17,2.4-15.26-2.43-5.05-7.86-7.93-13.4-7.12-5.67.91-10.08,5.42-10.85,11.11Z"/><g id="Ellipse_155"><circle class="cls-1" cx="65" cy="23" r="7"/><circle class="cls-4" cx="65" cy="23" r="6.5"/></g><rect id="Rectangle_161021" class="cls-3" x="10" y="9" width="70" height="63" rx="18" ry="18"/><path id="Path_38142" class="cls-3" d="m32.33,41.41c-.84,5.59,1.95,11.09,6.95,13.72,4.96,2.56,11.02,1.56,14.9-2.45,3.94-4.07,4.9-10.17,2.4-15.26-2.43-5.05-7.86-7.93-13.4-7.12-5.67.91-10.08,5.42-10.85,11.11Z"/><g id="Ellipse_156"><circle class="cls-1" cx="65" cy="23" r="7"/><circle class="cls-4" cx="65" cy="23" r="6.5"/></g><rect id="Rectangle_161022" class="cls-3" x="10" y="9" width="70" height="63" rx="18" ry="18"/><path id="Path_38143" class="cls-3" d="m32.33,41.41c-.84,5.59,1.95,11.09,6.95,13.72,4.96,2.56,11.02,1.56,14.9-2.45,3.94-4.07,4.9-10.17,2.4-15.26-2.43-5.05-7.86-7.93-13.4-7.12-5.67.91-10.08,5.42-10.85,11.11Z"/><g id="Ellipse_157"><circle class="cls-1" cx="65" cy="23" r="7"/><circle class="cls-4" cx="65" cy="23" r="6.5"/></g><rect id="Rectangle_161023" class="cls-3" x="10" y="9" width="70" height="63" rx="18" ry="18"/><path id="Path_38144" class="cls-3" d="m32.33,41.41c-.84,5.59,1.95,11.09,6.95,13.72,4.96,2.56,11.02,1.56,14.9-2.45,3.94-4.07,4.9-10.17,2.4-15.26-2.43-5.05-7.86-7.93-13.4-7.12-5.67.91-10.08,5.42-10.85,11.11Z"/><g id="Ellipse_158"><circle class="cls-1" cx="65" cy="23" r="7"/><circle class="cls-4" cx="65" cy="23" r="6.5"/></g><rect id="Rectangle_161024" class="cls-3" x="10" y="9" width="70" height="63" rx="18" ry="18"/><path id="Path_38145" class="cls-3" d="m32.33,41.41c-.84,5.59,1.95,11.09,6.95,13.72,4.96,2.56,11.02,1.56,14.9-2.45,3.94-4.07,4.9-10.17,2.4-15.26-2.43-5.05-7.86-7.93-13.4-7.12-5.67.91-10.08,5.42-10.85,11.11Z"/><g id="Ellipse_159"><circle class="cls-1" cx="65" cy="23" r="7"/><circle class="cls-4" cx="65" cy="23" r="6.5"/></g><rect id="Rectangle_161025" class="cls-3" x="10" y="9" width="70" height="63" rx="18" ry="18"/><path id="Path_38146" class="cls-3" d="m32.33,41.41c-.84,5.59,1.95,11.09,6.95,13.72,4.96,2.56,11.02,1.56,14.9-2.45,3.94-4.07,4.9-10.17,2.4-15.26-2.43-5.05-7.86-7.93-13.4-7.12-5.67.91-10.08,5.42-10.85,11.11Z"/><g id="Ellipse_160"><circle class="cls-1" cx="65" cy="23" r="7"/><circle class="cls-4" cx="65" cy="23" r="6.5"/></g><rect id="Rectangle_161026" class="cls-3" x="10" y="9" width="70" height="63" rx="18" ry="18"/><path id="Path_38147" class="cls-3" d="m32.33,41.41c-.84,5.59,1.95,11.09,6.95,13.72,4.96,2.56,11.02,1.56,14.9-2.45,3.94-4.07,4.9-10.17,2.4-15.26-2.43-5.05-7.86-7.93-13.4-7.12-5.67.91-10.08,5.42-10.85,11.11Z"/><g id="Ellipse_161"><circle class="cls-1" cx="65" cy="23" r="7"/><circle class="cls-4" cx="65" cy="23" r="6.5"/></g><rect id="Rectangle_161027" class="cls-3" x="10" y="9" width="70" height="63" rx="18" ry="18"/><path id="Path_38148" class="cls-3" d="m32.33,41.41c-.84,5.59,1.95,11.09,6.95,13.72,4.96,2.56,11.02,1.56,14.9-2.45,3.94-4.07,4.9-10.17,2.4-15.26-2.43-5.05-7.86-7.93-13.4-7.12-5.67.91-10.08,5.42-10.85,11.11Z"/><g id="Ellipse_162"><circle class="cls-1" cx="65" cy="23" r="7"/><circle class="cls-4" cx="65" cy="23" r="6.5"/></g><rect id="Rectangle_161028" class="cls-3" x="10" y="9" width="70" height="63" rx="18" ry="18"/><path id="Path_38149" class="cls-3" d="m32.33,41.41c-.84,5.59,1.95,11.09,6.95,13.72,4.96,2.56,11.02,1.56,14.9-2.45,3.94-4.07,4.9-10.17,2.4-15.26-2.43-5.05-7.86-7.93-13.4-7.12-5.67.91-10.08,5.42-10.85,11.11Z"/><g id="Ellipse_163"><circle class="cls-1" cx="65" cy="23" r="7"/><circle class="cls-4" cx="65" cy="23" r="6.5"/></g><rect id="Rectangle_161029" class="cls-3" x="10" y="9" width="70" height="63" rx="18" ry="18"/><path id="Path_38150" class="cls-3" d="m32.33,41.41c-.84,5.59,1.95,11.09,6.95,13.72,4.96,2.56,11.02,1.56,14.9-2.45,3.94-4.07,4.9-10.17,2.4-15.26-2.43-5.05-7.86-7.93-13.4-7.12-5.67.91-10.08,5.42-10.85,11.11Z"/><g id="Ellipse_164"><circle class="cls-1" cx="65" cy="23" r="7"/><circle class="cls-4" cx="65" cy="23" r="6.5"/></g><rect id="Rectangle_161030" class="cls-3" x="10" y="9" width="70" height="63" rx="18" ry="18"/><path id="Path_38151" class="cls-3" d="m32.33,41.41c-.84,5.59,1.95,11.09,6.95,13.72,4.96,2.56,11.02,1.56,14.9-2.45,3.94-4.07,4.9-10.17,2.4-15.26-2.43-5.05-7.86-7.93-13.4-7.12-5.67.91-10.08,5.42-10.85,11.11Z"/><g id="Ellipse_165"><circle class="cls-1" cx="65" cy="23" r="7"/><circle class="cls-4" cx="65" cy="23" r="6.5"/></g><rect id="Rectangle_161031" class="cls-3" x="10" y="9" width="70" height="63" rx="18" ry="18"/><path id="Path_38152" class="cls-3" d="m32.33,41.41c-.84,5.59,1.95,11.09,6.95,13.72,4.96,2.56,11.02,1.56,14.9-2.45,3.94-4.07,4.9-10.17,2.4-15.26-2.43-5.05-7.86-7.93-13.4-7.12-5.67.91-10.08,5.42-10.85,11.11Z"/><g id="Ellipse_166"><circle class="cls-1" cx="65" cy="23" r="7"/><circle class="cls-4" cx="65" cy="23" r="6.5"/></g><rect id="Rectangle_161032" class="cls-3" x="10" y="9" width="70" height="63" rx="18" ry="18"/><path id="Path_38153" class="cls-3" d="m32.33,41.41c-.84,5.59,1.95,11.09,6.95,13.72,4.96,2.56,11.02,1.56,14.9-2.45,3.94-4.07,4.9-10.17,2.4-15.26-2.43-5.05-7.86-7.93-13.4-7.12-5.67.91-10.08,5.42-10.85,11.11Z"/><g id="Ellipse_167"><circle class="cls-1" cx="65" cy="23" r="7"/><circle class="cls-4" cx="65" cy="23" r="6.5"/></g><rect id="Rectangle_161033" class="cls-3" x="10" y="9" width="70" height="63" rx="18" ry="18"/><path id="Path_38154" class="cls-3" d="m32.33,41.41c-.84,5.59,1.95,11.09,6.95,13.72,4.96,2.56,11.02,1.56,14.9-2.45,3.94-4.07,4.9-10.17,2.4-15.26-2.43-5.05-7.86-7.93-13.4-7.12-5.67.91-10.08,5.42-10.85,11.11Z"/><g id="Ellipse_168"><circle class="cls-2" cx="65" cy="23" r="7"/><circle class="cls-4" cx="65" cy="23" r="6.5"/></g></g></svg>